<svg preserveAspectRatio="xMidYMid meet" data-bbox="0 0 100.21 20.75" viewBox="0 0 100.21 20.75" xmlns="http://www.w3.org/2000/svg" data-type="color" role="presentation" aria-hidden="true">
    <g>
        <path d="M37.57 5.87v12.71h-3.3v-1.76c-.92 1.29-2.17 2.03-3.93 2.03-2.8 0-4.53-1.92-4.53-5.01V5.87h3.3v7.25c0 1.66.62 2.59 2.33 2.59 1.83 0 2.82-1.09 2.82-3.17V5.86h3.3Z" fill="#ffffff" data-color="1"></path>
        <path d="M52.03 10.6v7.97h-3.3v-7.25c0-1.66-.62-2.59-2.38-2.59-1.87 0-2.86 1.09-2.86 3.17v6.68h-3.3V5.87h3.3V7.6c.92-1.29 2.19-2.01 3.95-2.01 2.86 0 4.6 1.89 4.6 5.01Z" fill="#ffffff" data-color="1"></path>
        <path d="M66.4 10.6v7.97h-3.3v-7.25c0-1.66-.62-2.59-2.38-2.59-1.87 0-2.86 1.09-2.86 3.17v6.68h-3.3V5.87h3.3V7.6c.92-1.29 2.19-2.01 3.95-2.01 2.86 0 4.6 1.89 4.6 5.01Z" fill="#ffffff" data-color="1"></path>
        <path d="m81.71 5.87-.02 12.71h-3.3v-1.71c-.88 1.2-2.19 1.99-3.97 1.99-3.33 0-5.8-2.73-5.8-6.63S71.14 5.6 74.4 5.6c1.8 0 3.14.83 4.02 2.06V5.88h3.3Zm-3.3 6.35c0-2.08-1.41-3.49-3.26-3.49s-3.21 1.41-3.21 3.49 1.39 3.49 3.21 3.49 3.26-1.39 3.26-3.49Z" fill="#ffffff" data-color="1"></path>
        <path d="M94.34 17.83c-.69.46-2.26 1.02-3.79 1.02-2.54 0-4.76-1.52-4.76-5.17V8.99h-2.26V5.87h2.26V3.12l3.3-.72v3.46h4.71v3.12h-4.71v4.5c0 1.5.72 2.29 2.03 2.29.74 0 1.62-.25 2.66-.62l.55 2.68Z" fill="#ffffff" data-color="1"></path>
        <path d="M100.21 1.94c0 1.13-.85 1.96-2.06 1.96s-2.06-.83-2.06-1.96S96.99 0 98.15 0s2.06.81 2.06 1.94Zm-3.72 3.93h3.3v12.71h-3.3V5.87Z" fill="#ffffff" data-color="1"></path>
        <path fill="#ff6e1d" d="M16.94 3.39v14.47l-4.68-4.68V8.07H7.15L2.48 3.4v-.01h14.46z" data-color="2"></path>
        <path fill="#258910" d="M11.61 13.83v6.92L0 8.72h6.5l5.11 5.11z" data-color="3"></path>
    </g>
</svg>