<svg width="135" height="16" viewBox="0 0 135 16" fill="none" xmlns="http://www.w3.org/2000/svg">
<g clip-path="url(#clip0_404_886)">
<path d="M123.299 6.71816V15.7348H135V13.3038H126.046V9.14913H133.884V6.71816H126.046H123.299ZM109.733 4.30931C109.733 3.79366 109.957 3.35533 110.403 2.99436C110.85 2.6334 111.475 2.45293 112.279 2.45293C112.993 2.45293 113.7 2.5892 114.4 2.86179C115.1 3.13435 115.807 3.52845 116.521 4.0441L117.995 1.98883C117.191 1.3553 116.332 0.87281 115.416 0.541313C114.501 0.209816 113.47 0.0440493 112.324 0.0440493C111.549 0.0440493 110.835 0.15088 110.18 0.364505C109.525 0.578164 108.963 0.883884 108.494 1.28167C108.025 1.67945 107.657 2.1546 107.388 2.70707C107.121 3.25957 106.987 3.87468 106.987 4.5524C106.987 5.2743 107.102 5.88574 107.333 6.3867C107.564 6.88758 107.898 7.31484 108.338 7.66845C108.777 8.02207 109.32 8.31671 109.968 8.55245C110.615 8.78816 111.356 9.00179 112.189 9.19333C112.919 9.3701 113.511 9.53953 113.965 9.70163C114.419 9.86367 114.776 10.0368 115.037 10.221C115.297 10.4051 115.476 10.6077 115.572 10.8287C115.669 11.0497 115.718 11.3002 115.718 11.5801C115.718 12.1842 115.468 12.663 114.97 13.0165C114.471 13.3701 113.797 13.5469 112.949 13.5469C111.966 13.5469 111.088 13.3738 110.314 13.0276C109.54 12.6814 108.773 12.1842 108.014 11.5359L106.361 13.4806C107.299 14.3204 108.319 14.9429 109.421 15.3481C110.522 15.7533 111.676 15.9558 112.882 15.9558C113.7 15.9558 114.452 15.8527 115.137 15.6464C115.822 15.4401 116.41 15.1381 116.901 14.7403C117.392 14.3425 117.776 13.8563 118.051 13.2817C118.326 12.7072 118.464 12.0515 118.464 11.3149C118.464 10.6666 118.356 10.1031 118.14 9.62427C117.924 9.14544 117.608 8.72554 117.191 8.36457C116.774 8.00364 116.25 7.69792 115.617 7.44744C114.984 7.197 114.259 6.96864 113.44 6.76236C112.696 6.58559 112.081 6.41613 111.598 6.25409C111.114 6.09202 110.734 5.91521 110.459 5.72367C110.183 5.53213 109.994 5.32589 109.89 5.10491C109.785 4.8839 109.733 4.61869 109.733 4.30931ZM98.8914 0.265059V15.7348H101.638V0.265059H98.8914ZM77.7106 11.7348L73.9818 0.265059H71.0117L76.4604 15.8453H78.8273L82.668 4.72921L86.5087 15.8453H88.8754L94.324 0.265059H91.4435L87.7144 11.7348L83.8737 0.220891H81.5513L77.7106 11.7348ZM134.889 0.265059H123.299V2.69603H134.889V0.265059Z" fill="#1161D6"/>
<path d="M40.0836 4.3093C40.0836 3.79364 40.3067 3.35532 40.7533 2.99435C41.1999 2.63339 41.8251 2.45292 42.629 2.45292C43.3434 2.45292 44.0508 2.58919 44.7502 2.86178C45.4499 3.13434 46.157 3.52843 46.8717 4.04409L48.3454 1.98882C47.5415 1.35529 46.6819 0.872797 45.7663 0.5413C44.8508 0.209803 43.82 0.0440369 42.6737 0.0440369C41.8997 0.0440369 41.1849 0.150867 40.5302 0.364492C39.8751 0.578151 39.3132 0.883872 38.8443 1.28166C38.3754 1.67944 38.0067 2.15458 37.7389 2.70706C37.4708 3.25956 37.3369 3.87466 37.3369 4.55239C37.3369 5.27429 37.4521 5.88573 37.6829 6.38668C37.9137 6.88757 38.2488 7.31482 38.6877 7.66844C39.127 8.02205 39.6702 8.3167 40.318 8.55244C40.9655 8.78815 41.7062 9.00178 42.5398 9.19332C43.2691 9.37009 43.861 9.53952 44.3149 9.70162C44.7689 9.86366 45.1262 10.0368 45.3867 10.221C45.6471 10.4051 45.8259 10.6077 45.9225 10.8287C46.0194 11.0497 46.0677 11.3001 46.0677 11.58C46.0677 12.1841 45.8183 12.663 45.3197 13.0165C44.8211 13.3701 44.1474 13.5469 43.2988 13.5469C42.3163 13.5469 41.4381 13.3738 40.6641 13.0276C39.8901 12.6814 39.1234 12.1841 38.364 11.5358L36.7118 13.4806C37.6496 14.3204 38.6691 14.9429 39.7708 15.3481C40.8725 15.7532 42.0262 15.9558 43.2318 15.9558C44.0508 15.9558 44.8025 15.8527 45.4872 15.6464C46.172 15.4401 46.7601 15.1381 47.2514 14.7403C47.7426 14.3425 48.126 13.8563 48.4011 13.2817C48.6765 12.7072 48.8144 12.0515 48.8144 11.3149C48.8144 10.6666 48.7065 10.1031 48.4907 9.62426C48.2745 9.14542 47.9585 8.72552 47.5415 8.36456C47.1248 8.00363 46.5999 7.69791 45.9672 7.44743C45.3347 7.19698 44.609 6.96863 43.79 6.76235C43.0457 6.58558 42.4319 6.41612 41.9479 6.25408C41.464 6.092 41.0847 5.9152 40.8093 5.72366C40.5338 5.53212 40.344 5.32587 40.2397 5.1049C40.1355 4.88389 40.0836 4.61868 40.0836 4.3093ZM30.8269 15.7348H33.7297L26.8523 0.154559H24.3067L17.4292 15.7348H20.2427C22.9295 9.49334 22.6933 9.96505 25.5348 3.40321C28.3683 9.89247 28.1977 9.541 30.8269 15.7348ZM14.2909 13.2596L12.5269 11.4917C11.857 12.1105 11.1797 12.6003 10.4949 12.9613C9.8101 13.3223 8.99137 13.5027 8.03862 13.5027C7.29433 13.5027 6.60582 13.3591 5.97313 13.0718C5.34048 12.7845 4.79341 12.3904 4.33191 11.8895C3.87044 11.3885 3.51318 10.8029 3.2601 10.1325C3.00704 9.46219 2.88051 8.74395 2.88051 7.97782C2.88051 7.21172 3.00704 6.49717 3.2601 5.83418C3.51318 5.17118 3.87044 4.5929 4.33191 4.09933C4.79341 3.60576 5.34048 3.21533 5.97313 2.92803C6.60582 2.64077 7.29433 2.49712 8.03862 2.49712C8.93182 2.49712 9.72824 2.6739 10.4279 3.02751C11.1275 3.38109 11.79 3.84523 12.4152 4.41979L14.1792 2.40872C13.8071 2.05514 13.4126 1.73099 12.9958 1.43635C12.579 1.1417 12.1249 0.887531 11.6337 0.673905C11.1424 0.460279 10.6028 0.294516 10.0148 0.176643C9.42677 0.0587721 8.77553 -0.000131607 8.06094 -0.000131607C6.87003 -0.000131607 5.78336 0.209803 4.80084 0.629704C3.81835 1.04957 2.96982 1.62419 2.25529 2.35347C1.54073 3.08276 0.986236 3.9336 0.591718 4.90601C0.197239 5.87835 0 6.91704 0 8.02205C0 9.14176 0.200947 10.1878 0.602905 11.1602C1.00484 12.1326 1.55934 12.976 2.26645 13.6906C2.97354 14.4051 3.81089 14.9687 4.77853 15.3812C5.74613 15.7937 6.80305 16 7.9493 16C8.67874 16 9.3449 15.9374 9.94778 15.8121C10.5507 15.6869 11.1052 15.5028 11.6114 15.2597C12.1175 15.0166 12.5901 14.7293 13.0293 14.3978C13.4684 14.0663 13.889 13.6869 14.2909 13.2596ZM63.8541 9.21543V15.7348H66.6008V0.265047H63.8541V6.69603H56.3962V0.265047H53.6496V15.7348H56.3962V9.21543H63.8541Z" fill="#ffffff"/>
<path fill-rule="evenodd" clip-rule="evenodd" d="M25.5674 10.1126L23.1328 15.7349H28.0223L25.5674 10.1126Z" fill="#1161D6"/>
</g>
<defs>
<clipPath id="clip0_404_886">
<rect width="135" height="16" fill="white"/>
</clipPath>
</defs>
</svg>
